<svg width="200" height="200" viewBox="0 0 200 200" fill="none" xmlns="http://www.w3.org/2000/svg">
<path d="M188.682 110.014C180.305 183.045 162.858 196.905 89.827 188.527C16.7962 180.15 2.94286 162.703 11.3167 89.672C19.6939 16.6413 37.1414 2.78787 110.172 11.1651C183.199 19.5356 197.06 36.983 188.682 110.014Z" fill="url(#paint0_linear_0_62)"/>
<path d="M130.443 57.442C123.075 57.442 117.181 60.3907 111.284 69.0669L88.3599 103.619L90.4899 76.7647C91.1455 66.6108 84.759 57.442 73.4602 57.442C62.9802 57.442 56.4306 64.4842 55.775 73.4899L52.1741 122.941C51.3554 135.222 57.7419 142.264 67.8924 142.264C78.0429 142.264 84.4295 134.896 89.1786 128.183L111.284 94.6165L109.32 122.945C108.338 134.407 114.558 142.267 125.857 142.267C136.337 142.267 143.213 136.044 143.868 126.712L147.469 76.7681C148.288 66.9437 143.539 57.4454 130.44 57.4454L130.443 57.442Z" fill="url(#paint1_linear_0_62)"/>
<path d="M90.4899 76.7563L88.3599 103.61L89.1786 128.175C84.4295 134.887 78.0429 142.256 67.8924 142.256C57.7419 142.256 51.3554 135.213 52.1741 122.933L55.775 73.4815C56.4306 64.4758 62.9802 57.4336 73.4602 57.4336C84.759 57.4336 91.1455 66.6024 90.4899 76.7563Z" fill="url(#paint2_linear_0_62)"/>
<path d="M90.5205 75.3685C90.5205 65.9993 84.4635 57.442 73.3278 57.442C62.1922 57.442 55.7309 65.7921 55.7309 74.7978C55.7309 84.4591 62.9803 91.9905 73.1308 91.9905C83.2813 91.9905 90.5205 85.0264 90.5205 75.3651V75.3685Z" fill="white"/>
<defs>
<linearGradient id="paint0_linear_0_62" x1="208.416" y1="299.885" x2="9.24115" y2="1.96259" gradientUnits="userSpaceOnUse">
<stop offset="0.798146" stop-color="#F30745"/>
<stop offset="0.976597" stop-color="#FFBCCE"/>
</linearGradient>
<linearGradient id="paint1_linear_0_62" x1="96.0644" y1="99.4351" x2="60.645" y2="94.94" gradientUnits="userSpaceOnUse">
<stop offset="0.15" stop-color="white"/>
<stop offset="0.62" stop-color="white" stop-opacity="0.6"/>
<stop offset="1" stop-color="white" stop-opacity="0"/>
</linearGradient>
<linearGradient id="paint2_linear_0_62" x1="63.4312" y1="141.614" x2="73.0418" y2="89.2033" gradientUnits="userSpaceOnUse">
<stop offset="0.15" stop-color="white"/>
<stop offset="0.62" stop-color="white" stop-opacity="0.6"/>
<stop offset="1" stop-color="white" stop-opacity="0"/>
</linearGradient>
</defs>
</svg>
