<svg xmlns="http://www.w3.org/2000/svg" xmlns:xlink="http://www.w3.org/1999/xlink" viewBox="0,0,256,256" width="48px" height="48px" fill-rule="nonzero"><g fill="none" fill-rule="nonzero" stroke="none" stroke-width="1" stroke-linecap="butt" stroke-linejoin="miter" stroke-miterlimit="10" stroke-dasharray="" stroke-dashoffset="0" font-family="none" font-weight="none" font-size="none" text-anchor="none" style="mix-blend-mode: normal"><g transform="scale(5.33333,5.33333)"><path d="M24.001,4c-11.04569,0 -20,8.95431 -20,20c0,11.04569 8.95431,20 20,20c11.04569,0 20,-8.95431 20,-20c0,-11.04569 -8.95431,-20 -20,-20z" fill="#ffffff"></path><path d="M38.59,10.32c0,0 -0.85,-1.07 -2.19,-1.08c-1.32,-0.01 -2.72,0.6 -3.94,1.4c-0.05,0.03 -0.08,0.05 -0.08,0.05l-0.01,0.02c-2.6,1.57 -4.37,3.77 -4.37,3.77c2.27,2.17 7.86,9.35 9.66,13.77c2.75,6.76 1.04,9.23 1.04,9.23c-0.32,-3.7 -5.96,-10.29 -7.93,-12.39c-1,-1.073 -5.888,-6.042 -6.77,-6.938c-0.882,0.896 -5.77,5.865 -6.77,6.938c-1.97,2.1 -7.61,8.69 -7.93,12.39c0,0 -1.71,-2.47 1.04,-9.23c1.8,-4.42 7.39,-11.6 9.66,-13.77c0,0 -1.77,-2.2 -4.37,-3.77l-0.01,-0.02c0,0 -0.03,-0.02 -0.08,-0.05c-1.22,-0.8 -2.62,-1.41 -3.94,-1.4c-1.34,0.01 -2.19,1.08 -2.19,1.08c-3.36,3.59 -5.41,8.38 -5.41,13.68c0,11.05 8.95,20 20,20c11.05,0 20,-8.95 20,-20c0,-5.3 -2.05,-10.09 -5.41,-13.68z" fill="#107a10"></path><path d="M34.76,7.12c-3.13,-2.03 -6.75,-3.12 -10.76,-3.12c-4.01,0 -7.63,1.09 -10.76,3.12c-0.1,0.07 -0.27,0.2 -0.39,0.32c0.02,-0.01 0.04,-0.03 0.06,-0.04c0.56,-0.44 1.72,-0.82 3.41,-0.36c2.01,0.55 4.73,2.69 7.68,4.96c2.95,-2.27 5.67,-4.41 7.68,-4.96c1.69,-0.46 2.85,-0.08 3.41,0.36c0.02,0.01 0.04,0.03 0.06,0.04c-0.12,-0.12 -0.29,-0.25 -0.39,-0.32z" fill="#107a10"></path></g></g></svg>